<svg aria-hidden="true" style="width:0;height:0;position:absolute;overflow:hidden" xmlns="http://www.w3.org/2000/svg"><defs><symbol id="icon-Logomark" viewBox="0 0 32 32"><path d="M16 32C7.178 32 0 24.822 0 16S7.178 0 16 0s16 7.178 16 16-7.178 16-16 16zm0-29.69C8.452 2.31 2.31 8.451 2.31 16S8.451 29.69 16 29.69c7.548 0 13.69-6.141 13.69-13.69S23.549 2.31 16 2.31z"/><path d="m12.394 10.667 3.191 10.417h.118l3.191-10.417h3.86l-4.815 14.222h-4.592L8.532 10.667h3.86z"/></symbol><symbol id="icon-alert-circle" viewBox="0 0 32 32"><path fill="none" stroke="#fcf7e6" style="stroke:var(--color1,#fcf7e6)" stroke-linejoin="round" stroke-linecap="round" stroke-width="2.667" d="M16 29.333c7.364 0 13.333-5.97 13.333-13.333S23.363 2.667 16 2.667C8.636 2.667 2.667 8.637 2.667 16S8.637 29.333 16 29.333zM16 10.667V16M16 21.333h.013"/></symbol><symbol id="icon-shopping-cart-1-1" viewBox="0 0 32 32"><path d="M2.667 4c0-.736.597-1.333 1.333-1.333h2.667c.652 0 1.208.471 1.315 1.114l.481 2.886H28a1.333 1.333 0 0 1 1.265 1.755l-4 12a1.332 1.332 0 0 1-1.265.912H9.333a1.333 1.333 0 0 1-1.315-1.114L5.537 5.334H4a1.333 1.333 0 0 1-1.333-1.333zm6.24 5.333 1.556 9.333h12.576l3.111-9.333H8.907zM8 26.667a2.667 2.667 0 1 1 5.334 0 2.667 2.667 0 0 1-5.334 0zM20 26.667a2.667 2.667 0 1 1 5.334 0 2.667 2.667 0 0 1-5.334 0z"/></symbol><symbol id="icon-close-line" viewBox="0 0 32 32"><path fill="#fcf7e6" style="fill:var(--color1,#fcf7e6)" d="m16 14.115 6.6-6.6L24.485 9.4l-6.6 6.6 6.6 6.6-1.885 1.885-6.6-6.6-6.6 6.6L7.515 22.6l6.6-6.6-6.6-6.6L9.4 7.515l6.6 6.6z"/></symbol><symbol id="deleteIcon" viewBox="0 0 32 32"><path fill="#fcf7e6" style="fill:var(--color1,#fcf7e6)" d="M9.333 5.333V2.666h13.333v2.667h6.667V8h-2.667v20a1.334 1.334 0 0 1-1.334 1.334H6.665A1.334 1.334 0 0 1 5.331 28V8H2.664V5.333h6.667zM8 8v18.667h16V8H8zm4 4h2.667v10.667H12V12zm5.333 0H20v10.667h-2.667V12z"/></symbol></defs></svg>